<?xml version="1.0" encoding="utf-8"?>
<!-- Generator: Adobe Illustrator 24.2.1, SVG Export Plug-In . SVG Version: 6.00 Build 0)  -->
<svg version="1.1" id="Layer_1" xmlns="http://www.w3.org/2000/svg" xmlns:xlink="http://www.w3.org/1999/xlink" x="0px" y="0px"
	 viewBox="0 0 479.31 478.44" style="enable-background:new 0 0 479.31 478.44;" xml:space="preserve">
<g>
	<path d="M351.48,28.84c-1.13,1.28-2.18,2.56-3.33,3.74c-5.44,5.51-10.96,10.95-16.33,16.52c-1.28,1.33-2.26,1.32-3.83,0.58
		c-30.17-14.34-62.14-20.34-95.34-19.21c-95.06,3.24-175.85,70.63-196.66,163.6c-17.24,77.02,11.03,157.67,72.42,206.92
		c30.43,24.41,64.85,39.96,103.5,44.9c60.96,7.8,115.64-7.93,162.71-47.52c39.32-33.07,62.83-75.66,71.35-126.33
		c6.88-40.95,1.42-80.41-15.35-118.36c-3.37-7.63-3.36-7.63,2.52-13.45c5.28-5.23,10.53-10.48,15.82-15.75
		c48.45,84.89,42.69,216.63-58.42,299.47c-97.3,79.72-242.52,70.55-329.19-26.83C-20.3,305.41-19.1,163.41,68.71,73.01
		C157.01-17.9,282.66-11.34,351.48,28.84z"/>
	<path d="M307.7,106.2c-41.96-20.09-84.28-21.83-126.87-3.72c-30.88,13.13-54.38,34.86-70.96,64.06
		c-32.82,57.79-22.78,130.43,25.1,177.89c47.52,47.1,118.5,57.89,177.71,24.47c34.91-19.7,58.81-49.11,70.02-87.8
		c11.11-38.33,7.85-75.68-10.92-111.63c1.24-0.08,2.09-0.19,2.94-0.19c9.03-0.02,18.07,0.03,27.1-0.06c1.95-0.02,3,0.47,3.76,2.42
		c7.01,17.95,11.98,36.35,12.24,55.75c0.14,10.22,0.18,20.46-0.34,30.66c-0.78,15.39-4.9,30.15-10.6,44.36
		c-24,59.9-67.84,96.76-130.44,111.65c-8.64,2.06-17.38,3.04-26.25,2.92c-10.42-0.14-20.86,0.12-31.25-0.52
		c-13.95-0.86-27.33-4.76-40.35-9.66c-46.33-17.42-80.17-48.49-101.09-93.41c-7.83-16.82-13.34-34.45-15.02-52.97
		c-0.92-10.15-0.34-20.43-0.4-30.66c-0.29-51.37,31.69-113.01,88.15-145.11c20.05-11.4,41.37-19.28,64.18-22.44
		c9.67-1.34,19.6-0.9,29.41-1.09c21-0.41,41.21,3.64,60.81,11.03c1.82,0.69,2.62,1.47,2.63,3.56c0.02,9.13,0.27,18.26,0.42,27.4
		C307.72,104.06,307.7,105.03,307.7,106.2z"/>
	<path d="M397.81,5.27c0.08,1.52,0.18,2.58,0.19,3.64c0.13,16.48,0.19,32.96,0.44,49.44c0.02,1.56,0.86,3.43,1.94,4.58
		c4.41,4.7,8.98,9.28,13.69,13.68c1.14,1.07,3.04,1.87,4.6,1.88c16.58,0.13,33.16,0.08,49.74,0.08c1.09,0,2.18,0,3.94,0
		c-0.83,1.02-1.28,1.68-1.83,2.24c-23.65,23.66-47.3,47.33-71.04,70.91c-1.03,1.02-2.94,1.59-4.45,1.61
		c-15.98,0.11-31.97,0.11-47.96,0.02c-2.17-0.01-3.66,0.65-5.19,2.18c-21.65,21.74-43.31,43.45-65.11,65.04
		c-2.32,2.29-2.76,4.12-1.74,7.18c6.53,19.68-5.23,42.22-25.31,46.8c-20.75,4.73-38.66-3.78-44.87-24.71
		c-7.76-26.15,11.3-46.84,33.82-47.37c3.91-0.09,7.84,0.89,11.78,1.14c1.17,0.07,2.75-0.28,3.52-1.05
		c22.74-22.61,45.43-45.27,68.03-68.02c1.02-1.03,1.65-2.92,1.66-4.42c0.12-16.18,0.03-32.37,0.15-48.55
		c0.01-1.4,0.67-3.15,1.64-4.12c23.38-23.51,46.85-46.94,70.31-70.38C396.27,6.53,396.87,6.07,397.81,5.27z"/>
	<path d="M298.97,135.75c-7.11,7.1-13.95,14-20.92,20.75c-0.59,0.58-2.18,0.5-3.17,0.23c-6.69-1.79-13.24-4.47-20.03-5.45
		c-31.29-4.55-58.46,4.16-80.21,27.34c-18.88,20.12-26.39,44.4-23.1,71.78c4.71,39.2,36.1,70.72,74.97,76.74
		c48.04,7.44,92.76-25.56,101.2-72.47c3.25-18.1,1.08-35.78-6.69-52.59c-0.88-1.91-0.83-3.08,0.78-4.61
		c5.47-5.19,10.7-10.63,16.15-15.86c3.32-3.19,4.55-2.89,6.72,1.03c22,39.8,18,96.4-13.57,132.49
		c-18.4,21.04-40.81,35.14-68.19,40.74c-7.2,1.47-14.81,0.9-22.23,1.36c-56.83,3.54-108.82-43.5-117.96-97.09
		c-0.89-5.24-0.86-10.68-0.81-16.03c0.09-8.82-0.48-17.81,1.03-26.42c4.91-27.94,19.05-50.75,40.49-69.19
		c16.67-14.33,35.73-23.73,57.49-26.66C248.12,118.17,274.34,121.55,298.97,135.75z"/>
</g>
</svg>
