<?xml version="1.0" encoding="utf-8"?>
<!-- Generator: Adobe Illustrator 24.2.1, SVG Export Plug-In . SVG Version: 6.00 Build 0)  -->
<svg version="1.1" id="Layer_1" xmlns="http://www.w3.org/2000/svg" xmlns:xlink="http://www.w3.org/1999/xlink" x="0px" y="0px"
	 viewBox="0 0 810 496.8" style="enable-background:new 0 0 810 496.8;" xml:space="preserve">
<style type="text/css">
	.st0{fill:#FFFFFF;}
</style>
<path class="st0" d="M1250.55-549.51c97.99,20.92,160.61,117.96,139.46,216.1c-21.36,99.1-119.22,163.69-216.48,142.88
	c-97.31-20.82-161.35-120.76-140.3-218.95C1054.34-507.94,1151.63-570.63,1250.55-549.51z M1326.92-399.69
	c-12.27,39.25-48.25,49.29-72.07,44.02c-28.24-6.25-47.57-29.95-47.22-58.88c0.21-17.14,6.78-31.78,19.37-43.45
	c12.71-11.78,28.13-16.38,46.46-15.55c-2.06-1.44-2.97-2.14-3.94-2.74c-16.49-10.28-34.47-15.33-53.9-15.9
	c-78.49-2.27-137.7,66.98-122.94,143.97c12.56,65.51,76.53,109.15,141.61,96.6c47.67-9.19,86.64-47.85,96.05-95.34
	C1333.82-364.46,1332.28-381.65,1326.92-399.69z"/>
<path class="st0" d="M1303.39-5.32c38.46-76.17,39.39-151.99,0.7-228.95c1.61,1.01,2.66,1.52,3.53,2.25
	c37.6,31.74,70.84,67.53,99.78,107.33c2.21,3.05,2.4,5,0.13,8.17c-29.21,40.68-62.96,77.1-101.46,109.12
	C1305.2-6.68,1304.28-6.01,1303.39-5.32z"/>
<path class="st0" d="M1614.13-45.88c-7.36-6.38-14.83-12.62-22.05-19.15c-26.49-23.97-50.92-49.85-72.7-78.21
	c-1.68-2.19-2.46-3.74-0.45-6.44c26.94-36.27,57.74-68.89,92.17-98.1c0.48-0.41,1.07-0.7,2.6-1.7
	C1583.5-181.03,1583.77-113.59,1614.13-45.88z"/>
<g>
	<path d="M5.57,247.52c9.59-11.9,18.89-24.07,28.85-35.68C81.7,156.72,135.24,108.76,197.45,70.92
		c47.47-28.88,98.04-50.13,153-59.76c15.54-2.72,31.34-4.09,47.07-5.51c79.71-7.18,150.62,18.89,217.1,59.38
		c75.15,45.78,136.37,106.78,188.44,177.3c2.74,3.71,2.98,7.16,0.17,10.96c-54.1,73.3-118.18,135.88-196.85,182.65
		c-45.53,27.06-94.21,45.81-146.87,53.21c-30.85,4.34-61.76,3.97-92.65-0.29c-79.05-10.9-148.34-44.53-211.85-91.27
		C99.09,356.44,50.53,307.74,8.86,252.19C7.86,250.86,6.94,249.48,5.57,247.52z M222.23,246.42
		c0.16,101.15,81.9,183.08,182.61,183.01c100.41-0.07,184.66-83.7,184.55-183.21c-0.11-99.46-83.83-181.55-185.21-181.59
		C303.78,64.59,222.08,146.22,222.23,246.42z M617.99,363.2c0.9-0.69,1.81-1.36,2.69-2.09c38.5-32.02,72.25-68.44,101.46-109.12
		c2.27-3.17,2.09-5.13-0.13-8.17c-28.95-39.8-62.18-75.59-99.78-107.33c-0.87-0.73-1.92-1.23-3.53-2.25
		C657.38,211.22,656.46,287.03,617.99,363.2z M185.69,348.75c-30.36-67.71-30.63-135.15-0.42-203.6c-1.54,0.99-2.12,1.29-2.6,1.7
		c-34.43,29.21-65.23,61.83-92.17,98.1c-2.01,2.71-1.23,4.25,0.45,6.44c21.78,28.36,46.21,54.24,72.7,78.21
		C170.86,336.13,178.34,342.37,185.69,348.75z"/>
	<path d="M515.43,214.41c6.17,17.78,8.5,34.88,5.84,52.51c-7.23,47.87-44.4,88.26-91.61,99.62
		c-64.44,15.5-130.34-25.17-145.87-90.04c-18.26-76.23,37.73-148.11,116.25-149.42c19.44-0.32,37.62,3.9,54.57,13.42
		c1,0.56,1.94,1.22,4.06,2.56c-18.35,0.01-33.54,5.31-45.71,17.66c-12.05,12.23-17.94,27.16-17.37,44.29
		c0.97,28.92,21.36,51.72,49.85,56.67C469.48,265.84,504.97,254.18,515.43,214.41z"/>
</g>
</svg>
